# xmcd
#
# Track frame offsets: 
#        150
#        21275
#        45368
#
# Disc length: 1062 seconds
#
# Revision: 2
# Processed by: cddbd v1.5.2PL0 Copyright (c) Steve Scherf et al.
# Submitted via: ExactAudioCopy v1.1
#
DISCID=19042403
DTITLE=UVERworld - DECIDED
DYEAR=2017
DGENRE=Rock
TTITLE0=DECIDED
TTITLE1=RANGE
TTITLE2=DIS is TEKI
EXTD=YEAR: 2005
EXTT0=
EXTT1=
EXTT2=
PLAYORDER=
